<svg xmlns="http://www.w3.org/2000/svg" width="15.832" height="15.832" viewBox="0 0 15.832 15.832"><g transform="translate(0 -0.001)"><path d="M9.908,5.838A4.062,4.062,0,1,0,13.97,9.9,4.062,4.062,0,0,0,9.908,5.838Zm0,6.7A2.637,2.637,0,1,1,12.545,9.9,2.636,2.636,0,0,1,9.908,12.537Z" transform="translate(-1.99 -1.987)"/><path d="M11.18.05C9.723-.018,6.116-.014,4.658.05a4.731,4.731,0,0,0-3.322,1.28C-.187,2.853.008,4.9.008,7.914.008,10.993-.164,13,1.336,14.5c1.528,1.528,3.61,1.328,6.583,1.328,3.05,0,4.1,0,5.182-.416,1.466-.569,2.573-1.88,2.682-4.234.069-1.457.065-5.064,0-6.522C15.651,1.873,14.16.188,11.18.05Zm2.306,13.439c-1,1-2.383.909-5.586.909-3.3,0-4.621.049-5.586-.919C1.2,12.373,1.4,10.6,1.4,7.9c0-3.645-.374-6.269,3.284-6.457.84-.03,1.088-.04,3.2-.04l.03.02c3.515,0,6.273-.368,6.439,3.289.038.834.046,1.085.046,3.2,0,3.26.061,4.591-.92,5.576Z" transform="translate(0 0)"/><circle cx="0.949" cy="0.949" r="0.949" transform="translate(11.193 2.742)"/></g></svg>