<svg xmlns="http://www.w3.org/2000/svg" width="11.999" height="15.999" viewBox="0 0 11.999 15.999"><defs><style>.a{fill:#fff;}</style></defs><path class="a" d="M7-6.25V-10.5H.75A.748.748,0,0,0,0-9.75v14.5a.748.748,0,0,0,.75.75h10.5a.748.748,0,0,0,.75-.75V-5.5H7.75A.752.752,0,0,1,7-6.25ZM9,1.124a.376.376,0,0,1-.375.375H3.375A.376.376,0,0,1,3,1.124V.874A.376.376,0,0,1,3.375.5h5.25A.376.376,0,0,1,9,.874Zm0-2A.376.376,0,0,1,8.625-.5H3.375A.376.376,0,0,1,3-.876v-.25A.376.376,0,0,1,3.375-1.5h5.25A.376.376,0,0,1,9-1.125Zm0-2.25v.25a.376.376,0,0,1-.375.375H3.375A.376.376,0,0,1,3-2.875v-.25A.376.376,0,0,1,3.375-3.5h5.25A.376.376,0,0,1,9-3.125Zm3-3.565a.748.748,0,0,0-.219-.528L8.721-10.281A.749.749,0,0,0,8.19-10.5H8v4h4Z" transform="translate(0 10.5)"/></svg>