<svg xmlns="http://www.w3.org/2000/svg" width="12.633" height="12.633" viewBox="0 0 12.633 12.633"><defs><style>.a{fill:#2e2e2e;}</style></defs><g transform="translate(-249.621 -373.246)"><path class="a" d="M252.658,373.262a.557.557,0,0,1,.4.049.545.545,0,0,1,.272.272l1.185,2.765a.616.616,0,0,1,.025.383.591.591,0,0,1-.2.309l-1.481,1.234a9.069,9.069,0,0,0,1.79,2.568,8.68,8.68,0,0,0,2.58,1.8l1.21-1.482a.5.5,0,0,1,.321-.21.626.626,0,0,1,.37.037l2.765,1.185a.532.532,0,0,1,.3.272.558.558,0,0,1,.049.4l-.593,2.568a.468.468,0,0,1-.2.346.625.625,0,0,1-.37.124,11.268,11.268,0,0,1-5.777-1.555,11.511,11.511,0,0,1-4.123-4.123,11.268,11.268,0,0,1-1.555-5.778.625.625,0,0,1,.124-.37.468.468,0,0,1,.346-.2Z"/></g></svg>