<svg xmlns="http://www.w3.org/2000/svg" width="28.083" height="18.426" viewBox="0 0 28.083 18.426"><defs><style>.a{fill:#49aa47;}</style></defs><g transform="translate(0 -88.032)"><path class="a" d="M0,88.032V90.9a16.558,16.558,0,0,1,6.041,1.129q.5.2.967.423a15.308,15.308,0,0,1,2.286-.876,16.81,16.81,0,0,1,4.747-.675,16.564,16.564,0,0,1,6.067,1.129q.5.2.967.423a15.32,15.32,0,0,1,2.286-.876,16.818,16.818,0,0,1,4.721-.675V88.032Z" transform="translate(0 0)"/><path class="a" d="M320.59,210.392a3.491,3.491,0,0,0,5.442,2.9,3.484,3.484,0,0,0,1.54-2.895,2.978,2.978,0,0,0-.224-1.1,4.837,4.837,0,0,0-.695-1.184,8.827,8.827,0,0,0-2.572-2.144,9.489,9.489,0,0,0-2.112,1.615,5.245,5.245,0,0,0-1.2,1.84A2.914,2.914,0,0,0,320.59,210.392Z" transform="translate(-303.006 -111.465)"/><path class="a" d="M24.492,175.555a7.042,7.042,0,0,1,1.6,2.493,4.727,4.727,0,0,1,.279,1.573,5.3,5.3,0,1,1-10.6,0,5.028,5.028,0,0,1,.608-2.324,7.9,7.9,0,0,1,1.6-2.063,11.023,11.023,0,0,1,1.148-.939c-.277-.1-.562-.2-.854-.283a15.016,15.016,0,0,0-4.236-.6,14.809,14.809,0,0,0-5.09.884,10.618,10.618,0,0,1,1.474,1.261,7.047,7.047,0,0,1,1.6,2.493,4.721,4.721,0,0,1,.28,1.573,5.3,5.3,0,1,1-10.6,0,5.03,5.03,0,0,1,.608-2.324,7.907,7.907,0,0,1,1.6-2.063,10.992,10.992,0,0,1,1.147-.939c-.277-.1-.561-.2-.854-.283a15.022,15.022,0,0,0-4.21-.6v13.743H28.083V173.409a14.813,14.813,0,0,0-5.064.884A10.612,10.612,0,0,1,24.492,175.555Z" transform="translate(0 -80.694)"/><path class="a" d="M64.118,210.392a3.491,3.491,0,0,0,5.442,2.9,3.485,3.485,0,0,0,1.54-2.895,2.987,2.987,0,0,0-.224-1.1,4.853,4.853,0,0,0-.695-1.184,8.834,8.834,0,0,0-2.573-2.144,9.483,9.483,0,0,0-2.112,1.615,5.245,5.245,0,0,0-1.2,1.84A2.911,2.911,0,0,0,64.118,210.392Z" transform="translate(-60.601 -111.465)"/></g></svg>