<svg xmlns="http://www.w3.org/2000/svg" width="16.398" height="14.317" viewBox="0 0 16.398 14.317"><defs><style>.a{fill:#fff;}</style></defs><g transform="translate(-3.149 -11.894)"><path class="a" d="M30.386,80.624H23.778a.49.49,0,0,1-.489-.489V74.873H21.7v5.262a.49.49,0,0,1-.489.489h-2.57a.49.49,0,0,1-.489-.489V74.383a.489.489,0,1,1,.979,0v5.262h1.591V74.383a.49.49,0,0,1,.489-.489h2.57a.49.49,0,0,1,.489.489v5.262H29.9V74.383a.489.489,0,1,1,.979,0v5.751A.49.49,0,0,1,30.386,80.624Z" transform="translate(-13.164 -54.413)"/><path class="a" d="M3.639,19.481a.489.489,0,0,1-.318-.862l7.74-6.608a.489.489,0,0,1,.637,0l7.679,6.608a.489.489,0,0,1-.638.742l-7.361-6.334L3.957,19.364A.488.488,0,0,1,3.639,19.481Z" transform="translate(0 0)"/><path class="a" d="M78.453,77.076H75.638a.49.49,0,0,1-.489-.489v-2.2a.49.49,0,0,1,.489-.489h2.815a.49.49,0,0,1,.489.489v2.2A.49.49,0,0,1,78.453,77.076ZM76.128,76.1h1.836V74.873H76.128Z" transform="translate(-63.189 -54.413)"/></g></svg>