<svg xmlns="http://www.w3.org/2000/svg" xmlns:xlink="http://www.w3.org/1999/xlink" width="20" height="17" viewBox="0 0 20 17"><defs><clipPath id="a"><rect width="20" height="17" transform="translate(0 0.062)" fill="#fff"/></clipPath></defs><g transform="translate(0 -0.063)" clip-path="url(#a)"><path d="M29.583,70.021H21.708a.583.583,0,0,1-.583-.583V63.167h-1.9v6.271a.583.583,0,0,1-.583.583H15.583A.583.583,0,0,1,15,69.438V62.583a.583.583,0,0,1,1.167,0v6.271h1.9V62.583A.583.583,0,0,1,18.646,62h3.063a.583.583,0,0,1,.583.583v6.271H29V62.583a.583.583,0,0,1,1.167,0v6.854a.583.583,0,0,1-.583.583" transform="translate(-12.813 -52.958)" fill="#fff"/><path d="M.584,9.042A.583.583,0,0,1,.2,8.015L9.428.14a.583.583,0,0,1,.759,0l9.151,7.875a.583.583,0,1,1-.761.884L9.806,1.352.962,8.9a.58.58,0,0,1-.378.14" transform="translate(0 0)" fill="#fff"/><path d="M75.938,65.792H72.583A.583.583,0,0,1,72,65.208V62.583A.583.583,0,0,1,72.583,62h3.354a.583.583,0,0,1,.583.583v2.625a.583.583,0,0,1-.583.583m-2.771-1.167h2.187V63.167H73.167Z" transform="translate(-61.5 -52.958)" fill="#fff"/></g></svg>