<svg xmlns="http://www.w3.org/2000/svg" xmlns:xlink="http://www.w3.org/1999/xlink" width="18.333" height="20.691" viewBox="0 0 18.333 20.691"><defs><clipPath id="a"><rect width="18.333" height="20.692" transform="translate(0 0)" fill="#fff"/></clipPath></defs><g transform="translate(0 0)"><g transform="translate(0 0)" clip-path="url(#a)"><path d="M9.167,20.692a1.209,1.209,0,0,0,1.064-.64h0c5.241-.747,6.681-4.372,7.077-6.277a1.941,1.941,0,0,0,1.025-1.707V11.039a1.946,1.946,0,0,0-.874-1.624V8.292a8.292,8.292,0,0,0-16.585,0V9.415A1.946,1.946,0,0,0,0,11.039v1.028a1.949,1.949,0,0,0,1.949,1.949.514.514,0,0,0,.514-.514V9.6a.507.507,0,0,0-.431-.5V8.292a7.134,7.134,0,0,1,14.269,0v.814a.507.507,0,0,0-.431.5v3.9a.5.5,0,0,0,.234.42c-.42,1.647-1.741,4.307-5.888,4.957a1.211,1.211,0,1,0-1.05,1.812" transform="translate(0 0)" fill="#fff"/><path d="M18.021,24.172c3.314,0,6.009-3.143,6.009-7.005a8.158,8.158,0,0,0-.154-1.548v-.007s0-.008,0-.012a.541.541,0,0,0-.031-.075.565.565,0,0,0-.052-.126.488.488,0,0,0-.282-.219.5.5,0,0,0-.069-.032,7.877,7.877,0,0,1-3.68-2.333.579.579,0,0,0-.771-.106l-.45.31c-1.837,1.273-3.579,2.478-6.051,1.894a5.988,5.988,0,0,1,5.8-5.58.579.579,0,0,0,0-1.158,7.17,7.17,0,0,0-6.971,7.175.579.579,0,0,0,.408.553c.131.041.259.071.387.1a8.041,8.041,0,0,0-.1,1.16c0,3.863,2.7,7.005,6.009,7.005M19.2,13.97l.034-.024a8.962,8.962,0,0,0,3.555,2.214,6.908,6.908,0,0,1,.085,1.006c0,3.224-2.176,5.847-4.851,5.847s-4.851-2.623-4.851-5.847a6.858,6.858,0,0,1,.079-.97c2.446.191,4.291-1.079,5.948-2.227" transform="translate(-8.663 -6.259)" fill="#fff"/></g></g></svg>