<svg id="レイヤー_1" data-name="レイヤー 1" xmlns="http://www.w3.org/2000/svg" viewBox="0 0 130.13 24.47"><defs><style>.cls-1{fill:#fff;}</style></defs><path class="cls-1" d="M255.25,418.27l-5.9-9.19h-5.9l2.59,4-2,3.15-.93,1.44h0l-5.53-8.62h-5.9v9.19l5.53-8.62h0l2.95,4.6h0l-2.58,4h-5.9v9.19h29.49v-9.19h-5.9Zm-5.9,0h-5.9l5.54-8.62h0l.28.44,2.67,4.16-2.34,3.64Z" transform="translate(-231.66 -409.08)"/><polygon class="cls-1" points="29.49 0 23.59 0 29.49 9.19 29.49 0"/><path class="cls-1" d="M260.23,433.21h-.12c-.15,0-.28,0-.28-.31V432h.07c.63,0,.78.13.78.13v-.42s-.17,0-.85,0v-.64a2.18,2.18,0,0,1,0-.28h.23c.62,0,.77.12.77.12v-.44a7,7,0,0,1-1.17.05h-.07a1.64,1.64,0,0,1-.29,0,1.88,1.88,0,0,1,.06.6v1.82a1.88,1.88,0,0,1-.06.6,1.64,1.64,0,0,1,.29,0h.23a7,7,0,0,1,1.17,0v-.44s-.15.12-.77.12" transform="translate(-231.66 -409.08)"/><path class="cls-1" d="M235,432.9l-.18-1.82a1.94,1.94,0,0,1,0-.6,1.64,1.64,0,0,1-.29,0h-.23l-.92,2.08-.92-2.08h-.23a.32.32,0,1,0-.29.58l-.2,1.88a1.77,1.77,0,0,1-.11.54h.43a1.36,1.36,0,0,1,0-.54l.19-1.84,1.05,2.38,1.07-2.38.18,1.78a.33.33,0,1,0,.29.58,1.71,1.71,0,0,1,.3,0,1.9,1.9,0,0,1-.13-.6" transform="translate(-231.66 -409.08)"/><path class="cls-1" d="M258.48,432.9l-.19-1.82a1.66,1.66,0,0,1,0-.6,1.71,1.71,0,0,1-.3,0h-.23l-.92,2.08-.92-2.08h-.23a.32.32,0,1,0-.29.58l-.19,1.88a1.9,1.9,0,0,1-.12.54h.43a1.69,1.69,0,0,1,0-.54l.19-1.84,1.06,2.38,1.06-2.38.18,1.78a1.94,1.94,0,0,1,0,.6,1.51,1.51,0,0,1,.29,0,1.64,1.64,0,0,1,.29,0,1.79,1.79,0,0,1-.12-.6" transform="translate(-231.66 -409.08)"/><path class="cls-1" d="M250.85,430.48a2.11,2.11,0,0,1-.58,0,1.88,1.88,0,0,1,.06.6v.59h-1.59v-.59a1.88,1.88,0,0,1,.06-.6,1.64,1.64,0,0,1-.29,0,1.71,1.71,0,0,1-.3,0,1.88,1.88,0,0,1,.06.6v1.82a1.88,1.88,0,0,1-.06.6,1.71,1.71,0,0,1,.3,0,1.64,1.64,0,0,1,.29,0,1.88,1.88,0,0,1-.06-.6V432c.18,0,.43,0,.79,0s.62,0,.8,0v.91a1.88,1.88,0,0,1-.06.6,2.11,2.11,0,0,1,.58,0,1.88,1.88,0,0,1-.06-.6v-1.82a1.88,1.88,0,0,1,.06-.6" transform="translate(-231.66 -409.08)"/><path class="cls-1" d="M244.79,430.48a1.85,1.85,0,0,1-.3,0,1.64,1.64,0,0,1-.29,0,1.88,1.88,0,0,1,.06.6v1.47a.55.55,0,0,1-.34.56,1.36,1.36,0,0,1-.56.14c-.32,0-.63-.11-.63-.78v-1.39a1.88,1.88,0,0,1,.06-.6,1.71,1.71,0,0,1-.3,0,1.64,1.64,0,0,1-.29,0,1.88,1.88,0,0,1,.06.6v1.39a1,1,0,0,0,1.09,1.08,1.64,1.64,0,0,0,.93-.33,1,1,0,0,0,0,.26h.17a1.85,1.85,0,0,1,.3,0,1.88,1.88,0,0,1-.06-.6v-1.82a1.88,1.88,0,0,1,.06-.6" transform="translate(-231.66 -409.08)"/><path class="cls-1" d="M253.07,430.41a1.57,1.57,0,1,0,1.55,1.57,1.56,1.56,0,0,0-1.55-1.57m.38,2.78a1.15,1.15,0,0,1-1.39-.88,1.16,1.16,0,0,1,.62-1.54,1.15,1.15,0,0,1,1.39.88,1.16,1.16,0,0,1-.62,1.54" transform="translate(-231.66 -409.08)"/><path class="cls-1" d="M236.47,430.48a1.71,1.71,0,0,1-.3,0,1.85,1.85,0,0,1-.3,0,1.63,1.63,0,0,1,.07.6v1.82a1.63,1.63,0,0,1-.07.6,1.85,1.85,0,0,1,.3,0,1.71,1.71,0,0,1,.3,0,1.88,1.88,0,0,1-.06-.6v-1.82a1.88,1.88,0,0,1,.06-.6" transform="translate(-231.66 -409.08)"/><path class="cls-1" d="M246.23,430.48a2.26,2.26,0,0,1-.6,0,1.88,1.88,0,0,1,.06.6v1.82a1.88,1.88,0,0,1-.06.6,2.26,2.26,0,0,1,.6,0,1.88,1.88,0,0,1-.06-.6v-1.82a1.88,1.88,0,0,1,.06-.6" transform="translate(-231.66 -409.08)"/><path class="cls-1" d="M237,430.45v.44s.14-.12.77-.12h.17v2.13a1.88,1.88,0,0,1-.06.6,2.11,2.11,0,0,1,.58,0,1.88,1.88,0,0,1-.06-.6v-2.13h.17c.63,0,.78.12.78.12v-.44a7.21,7.21,0,0,1-1.18.05,7,7,0,0,1-1.17-.05" transform="translate(-231.66 -409.08)"/><path class="cls-1" d="M240.9,431.72c-.28-.15-.67-.29-.67-.63a.4.4,0,0,1,.45-.38,1.08,1.08,0,0,1,.72.36v-.56a3.05,3.05,0,0,0-.72-.1.78.78,0,0,0-.85.77.88.88,0,0,0,.54.79c.3.15.72.32.72.74a.51.51,0,0,1-.53.54.85.85,0,0,1-.74-.51l-.18.49a1.47,1.47,0,0,0,.92.32,1,1,0,0,0,1-1,1,1,0,0,0-.64-.86" transform="translate(-231.66 -409.08)"/><rect class="cls-1" x="99.36" y="8.98" width="13.73" height="2.14"/><rect class="cls-1" x="39.45" y="3.05" width="15.26" height="1.9"/><rect class="cls-1" x="40.34" y="8.98" width="13.48" height="1.9"/><rect class="cls-1" x="38.6" y="16.11" width="16.95" height="1.9"/><path class="cls-1" d="M304.49,416.26h3.33v-1.81h-3.33v-3.38h-2.83v3.38h-4.88v-3.38H294v3.38h-3.33v1.81H294v2.11c0,1.27,0,2.34-.1,3.26h-4v1.81h3.79a7.36,7.36,0,0,1-2.59,4.19l1.52.7a7.77,7.77,0,0,0,3.72-4.89h5.41v4.72h2.83v-4.72h4.14v-1.81h-4.14Zm-7.89,5.37a26.42,26.42,0,0,0,.18-3.26v-2.11h4.88v5.37Z" transform="translate(-231.66 -409.08)"/><path class="cls-1" d="M361.79,427.53a24.62,24.62,0,0,0-4.4-8.93h-1.9a30.26,30.26,0,0,1,2.3,5.33A41.43,41.43,0,0,1,348,425a33.24,33.24,0,0,0,5.55-13.28h-3c-1.14,6-2.79,10.33-4.63,13.3h-1.65v2.61c5.53,0,10.09-.5,14-2.11.26.94.47,1.88.64,2.79Z" transform="translate(-231.66 -409.08)"/><polygon class="cls-1" points="96.61 7.21 96.61 5.37 89.6 5.37 89.6 1.99 86.76 1.99 86.76 5.37 79.75 5.37 79.75 7.21 86.76 7.21 86.76 19.08 89.6 19.08 89.6 7.21 96.61 7.21"/><path class="cls-1" d="M311.15,426.52l1.45.67A13.67,13.67,0,0,0,316,418.6h-2.77a15.46,15.46,0,0,1-2.06,7.92" transform="translate(-231.66 -409.08)"/><path class="cls-1" d="M323.48,418.6a31.84,31.84,0,0,1,2.11,8.49l2.82-.78a19.9,19.9,0,0,0-3.09-7.71Z" transform="translate(-231.66 -409.08)"/></svg>