<svg xmlns="http://www.w3.org/2000/svg" width="147.466" height="29.492" viewBox="0 0 147.466 29.492"><defs><style>.a,.d{fill:#fff;}.b{fill:none;stroke-miterlimit:6;}.c,.d{stroke:none;}</style></defs><g transform="translate(-3.267 -1.654)"><g transform="translate(3.267 1.654)"><path class="a" d="M80.236,39.811c1.733-.4,3.758-1.626,3.758-5.146a4.084,4.084,0,0,0-2.731-4.109l-.107-.036-.016.126a29.818,29.818,0,0,1-2.33,9.333c-.732,1.48-1.684,2.2-2.91,2.2a3.412,3.412,0,0,1-2.671-1.633,7.632,7.632,0,0,1-1.247-4.494,9.232,9.232,0,0,1,2.124-6.082,7.247,7.247,0,0,1,2.461-1.856,7.612,7.612,0,0,1,3.209-.681c4.306,0,7.089,2.88,7.089,7.338a10.268,10.268,0,0,1-.607,3.647,6.84,6.84,0,0,1-1.619,2.5,7.258,7.258,0,0,1-4.4,1.932V39.811M78.271,30.45c-2.471.672-3.6,3.375-3.6,5.6a4.809,4.809,0,0,0,.447,2.155c.23.461.522.773.73.773.31,0,.649-.58,1.136-1.938a34.32,34.32,0,0,0,1.4-6.473l.02-.158Z" transform="translate(-36.235 -14.023)"/><rect class="a" width="2.962" height="9.415" transform="translate(80.565 13.162)"/><path class="a" d="M169.433,35.415c0,3.23-2.95,4.607-5.475,4.8l-.882.068,1.533,2.515.314-.007a8.085,8.085,0,0,0,2.911-.63,7.731,7.731,0,0,0,2.414-1.579,6.914,6.914,0,0,0,2.2-4.908v-8.7h-3.018v8.443" transform="translate(-79.939 -13.801)"/><rect class="a" width="10.084" height="2.823" transform="translate(122.97 19.335)"/><path class="a" d="M222.04,34.228h-2.784v1.859H212.9v2.785h4.468a7.109,7.109,0,0,1-.666,1.687,9.152,9.152,0,0,1-3.876,3.409l-.612.331,1.949,2.13.377-.215a11.533,11.533,0,0,0,4.6-4.286c.041-.072.08-.144.118-.216v4.58h2.784V38.873h1.951V36.087H222.04V34.228" transform="translate(-103.516 -17.282)"/><path class="a" d="M197.742,27.717H185.7v3.012h9.129v3.385a5.867,5.867,0,0,1-1.8,4.364,7.373,7.373,0,0,1-5.125,1.713l-.265,0-.3.018-.719-.021,1.432,2.479.171.341.4-.032c3.362-.18,5.866-1.361,7.44-3.51a9.165,9.165,0,0,0,1.674-5.35v-6.4" transform="translate(-90.794 -14.159)"/><path class="a" d="M50.624,31.141h2.414V28.4H50.624v-2.36h-3.1V28.4H43.6V26.077h-2.93V28.4H37.741v2.745h2.925v2.806a7.373,7.373,0,0,1-.118,1.336H37.56V38.07H39.6a9.093,9.093,0,0,1-1.943,2.222l-.494.382,2.2,2.141.378-.337A12.2,12.2,0,0,0,42.9,38.07h4.63v4.362h3.1V38.07h2.7V35.284h-2.7V31.141M43.6,33.665c0-.048,0-.093,0-.113v-2.41h3.929v4.142h-3.98A10.39,10.39,0,0,0,43.6,33.665Z" transform="translate(-19.53 -13.352)"/><rect class="a" width="13.907" height="2.954" transform="translate(0.51 13.379)"/><rect class="a" width="12.781" height="2.952" transform="translate(1.125 19.278)"/><rect class="a" width="15.095" height="2.989" transform="translate(0 25.581)"/><path class="a" d="M270.776,34.442l-2.732,1.012,1.154,3.295-5.757.712,3.335-12.49h-3.015l-3.438,12.877-1.39.172.358,2.892,10.892-1.351.479,1.366,2.733-1.013-2.619-7.473" transform="translate(-125.93 -13.801)"/><rect class="a" width="17.997" height="3.11" transform="translate(56.262 26.383)"/><rect class="a" width="3.872" height="3.875" transform="translate(59.614 11.708)"/><rect class="a" width="3.872" height="3.871" transform="translate(59.614 18.973)"/><rect class="a" width="3.877" height="3.875" transform="translate(67.031 11.708)"/><rect class="a" width="3.877" height="3.871" transform="translate(67.031 18.973)"/><path class="a" d="M120.421,1.654l-9,6.092v4.06l9-6.109,8.993,6.082V7.741l-8.993-6.087" transform="translate(-55.155 -1.654)"/></g><g class="b" transform="translate(-49.021 -5.619)"><path class="c" d="M108.55,13.365l-3.108,2.1v21.3h3.108Z"/><path class="d" d="M 108.05029296875 14.30768585205078 L 105.9419021606445 15.73533248901367 L 105.9419021606445 36.26517868041992 L 108.05029296875 36.26517868041992 L 108.05029296875 14.30768585205078 M 108.55029296875 13.36528015136719 L 108.55029296875 36.76517868041992 L 105.4419021606445 36.76517868041992 L 105.4419021606445 15.47005081176758 L 108.55029296875 13.36528015136719 Z"/></g><g class="b" transform="translate(-68.481 -5.619)"><path class="c" d="M146,13.365l3.11,2.1v21.3H146Z"/><path class="d" d="M 146.5025024414062 14.30747222900391 L 146.5025024414062 36.26517868041992 L 148.6121368408203 36.26517868041992 L 148.6121368408203 15.73538589477539 L 146.5025024414062 14.30747222900391 M 146.0025024414062 13.36528015136719 L 149.1121368408203 15.47005081176758 L 149.1121368408203 36.76517868041992 L 146.0025024414062 36.76517868041992 L 146.0025024414062 13.36528015136719 Z"/></g></g></svg>