<svg id="レイヤー_1" data-name="レイヤー 1" xmlns="http://www.w3.org/2000/svg" viewBox="0 0 261 89"><defs><style>.cls-1{fill:#fff;}.cls-2{fill:#b0051c;}.cls-3{fill:#231815;}</style></defs><polygon class="cls-1" points="260 0 0 0 1 89 261 89 260 0"/><path class="cls-2" d="M203.41,399.27H191.65l5.16,8-5.88,9.08-11-17H168.14v18.16l11-17,5.88,9.08-5.15,8H168.14V435.6h58.79V417.43H215.17Zm0,18.16H191.65l11-17,5.88,9.08Z" transform="translate(-168 -359)"/><polygon class="cls-2" points="47.17 40.27 58.93 58.43 58.93 40.27 47.17 40.27"/><polygon class="cls-1" points="35.41 40.27 47.17 58.43 58.93 58.43 47.17 40.27 35.41 40.27"/><polygon class="cls-1" points="23.65 58.43 35.41 58.43 40.56 50.47 34.69 41.39 23.65 58.43"/><polygon class="cls-1" points="28.81 48.23 23.65 40.27 11.9 40.27 22.93 57.31 28.81 48.23"/><polygon class="cls-1" points="17.05 50.47 11.17 41.39 0.14 58.43 11.89 58.43 17.05 50.47"/><path class="cls-3" d="M225.09,447h-.22c-.31,0-.57-.1-.57-.62v-1.84h.15c1.25,0,1.54.23,1.54.23v-.81s-.33,0-1.69,0v-1.26c0-.24,0-.44,0-.57h.46c1.24,0,1.54.24,1.54.24v-.87a15.73,15.73,0,0,1-2.35.09h-.13a4.36,4.36,0,0,1-.58,0,3.73,3.73,0,0,1,.12,1.19v3.59a3.73,3.73,0,0,1-.12,1.19,4.36,4.36,0,0,1,.58,0h.47a15.07,15.07,0,0,1,2.32.09v-.87s-.29.24-1.54.24" transform="translate(-168 -359)"/><path class="cls-3" d="M174.89,446.35l-.38-3.59a3.66,3.66,0,0,1,0-1.19,4.36,4.36,0,0,1-.58,0h-.46l-1.84,4.12-1.83-4.12h-.46a4.36,4.36,0,0,1-.58,0,3.66,3.66,0,0,1,0,1.19l-.39,3.71a3.14,3.14,0,0,1-.23,1.07,4.63,4.63,0,0,1,.86,0,3,3,0,0,1,0-1.07l.38-3.63,2.11,4.7,2.12-4.7.36,3.51a3.56,3.56,0,0,1,0,1.19,5.62,5.62,0,0,1,1.16,0,4.06,4.06,0,0,1-.24-1.19" transform="translate(-168 -359)"/><path class="cls-3" d="M221.6,446.35l-.37-3.59a3.56,3.56,0,0,1,0-1.19,4.36,4.36,0,0,1-.58,0h-.46l-1.83,4.12-1.84-4.12h-.45a4.18,4.18,0,0,1-.58,0,3.56,3.56,0,0,1,0,1.19l-.39,3.71a3.14,3.14,0,0,1-.23,1.07,3.62,3.62,0,0,1,.43,0,3.42,3.42,0,0,1,.43,0,2.94,2.94,0,0,1,0-1.07l.38-3.63,2.1,4.7,2.12-4.7.37,3.51a4,4,0,0,1,0,1.19,4.09,4.09,0,0,1,.57,0,4.44,4.44,0,0,1,.59,0,4.21,4.21,0,0,1-.25-1.19" transform="translate(-168 -359)"/><path class="cls-3" d="M206.4,441.57a4.36,4.36,0,0,1-.58,0,4.63,4.63,0,0,1-.59,0,3.8,3.8,0,0,1,.12,1.19v1.17h-3.16v-1.17a3.8,3.8,0,0,1,.12-1.19,4.36,4.36,0,0,1-.58,0,4.44,4.44,0,0,1-.59,0,3.8,3.8,0,0,1,.12,1.19v3.59a3.73,3.73,0,0,1-.12,1.19,4.44,4.44,0,0,1,.59,0,4.36,4.36,0,0,1,.58,0,3.73,3.73,0,0,1-.12-1.19v-1.8c.36,0,.86,0,1.58,0s1.23,0,1.58,0v1.8a3.73,3.73,0,0,1-.12,1.19,4.63,4.63,0,0,1,.59,0,4.36,4.36,0,0,1,.58,0,3.73,3.73,0,0,1-.12-1.19v-3.59a3.8,3.8,0,0,1,.12-1.19" transform="translate(-168 -359)"/><path class="cls-3" d="M194.31,441.57a4.36,4.36,0,0,1-.58,0,4.44,4.44,0,0,1-.59,0,3.8,3.8,0,0,1,.12,1.19v2.9a1.09,1.09,0,0,1-.67,1.1,2.64,2.64,0,0,1-1.12.28c-.64,0-1.27-.22-1.27-1.54v-2.74a3.8,3.8,0,0,1,.12-1.19,5.62,5.62,0,0,1-1.16,0,3.8,3.8,0,0,1,.12,1.19v2.74a1.89,1.89,0,0,0,2.17,2.14,3.23,3.23,0,0,0,1.84-.65,2.7,2.7,0,0,0,.08.52h.36a4.36,4.36,0,0,1,.58,0,3.73,3.73,0,0,1-.12-1.19v-3.59a3.8,3.8,0,0,1,.12-1.19" transform="translate(-168 -359)"/><path class="cls-3" d="M210.82,441.43a3.11,3.11,0,1,0,3.1,3.1,3.1,3.1,0,0,0-3.1-3.1m.77,5.49a2.55,2.55,0,1,1,1.23-3,2.28,2.28,0,0,1-1.23,3" transform="translate(-168 -359)"/><path class="cls-3" d="M177.74,441.57a4.72,4.72,0,0,1-.6,0,4.63,4.63,0,0,1-.59,0,3.8,3.8,0,0,1,.12,1.19v3.59a3.73,3.73,0,0,1-.12,1.19,4.63,4.63,0,0,1,.59,0,4.72,4.72,0,0,1,.6,0,3.73,3.73,0,0,1-.12-1.19v-3.59a3.8,3.8,0,0,1,.12-1.19" transform="translate(-168 -359)"/><path class="cls-3" d="M197.18,441.57a4.63,4.63,0,0,1-.59,0,4.72,4.72,0,0,1-.6,0,3.8,3.8,0,0,1,.12,1.19v3.59a3.73,3.73,0,0,1-.12,1.19,4.72,4.72,0,0,1,.6,0,4.63,4.63,0,0,1,.59,0,3.73,3.73,0,0,1-.12-1.19v-3.59a3.8,3.8,0,0,1,.12-1.19" transform="translate(-168 -359)"/><path class="cls-3" d="M178.76,441.51v.87s.29-.24,1.54-.24h.34v4.21a3.8,3.8,0,0,1-.12,1.19,4.36,4.36,0,0,1,.58,0,4.44,4.44,0,0,1,.59,0,3.8,3.8,0,0,1-.12-1.19v-4.21h.34c1.24,0,1.54.24,1.54.24v-.87a30.6,30.6,0,0,1-4.69,0" transform="translate(-168 -359)"/><path class="cls-3" d="M186.57,444c-.56-.3-1.34-.57-1.34-1.25a.81.81,0,0,1,.9-.74,2.07,2.07,0,0,1,1.42.7v-1.11a7.08,7.08,0,0,0-1.42-.19,1.55,1.55,0,0,0-1.7,1.53,1.69,1.69,0,0,0,1.09,1.55c.58.31,1.43.63,1.43,1.46a1,1,0,0,1-1.06,1.07,1.66,1.66,0,0,1-1.47-1l-.36,1a2.9,2.9,0,0,0,1.83.63,2,2,0,0,0,2-1.92,1.88,1.88,0,0,0-1.28-1.7" transform="translate(-168 -359)"/><rect class="cls-3" x="198.22" y="58.02" width="27.37" height="4.22"/><rect class="cls-3" x="78.78" y="46.29" width="30.41" height="3.75"/><rect class="cls-3" x="80.56" y="58.02" width="26.86" height="3.75"/><rect class="cls-3" x="77.09" y="72.12" width="33.79" height="3.75"/><path class="cls-3" d="M313.34,413.46H320v-3.58h-6.64V403.2h-5.66v6.68H298V403.2h-5.64v6.68h-6.64v3.58h6.64v4.17c0,2.5,0,4.61-.19,6.44h-8.05v3.58h7.55a14.47,14.47,0,0,1-5.16,8.28l3,1.39a15.47,15.47,0,0,0,7.43-9.67h10.76V437h5.66v-9.34h8.25v-3.58h-8.25Zm-15.73,10.61a51.75,51.75,0,0,0,.35-6.44v-4.17h9.72v10.61Z" transform="translate(-168 -359)"/><path class="cls-3" d="M427.57,435.74a48.43,48.43,0,0,0-8.78-17.65H415a57.73,57.73,0,0,1,4.59,10.53c-4.64,1.29-11,2-19.55,2.15a65.25,65.25,0,0,0,11-26.25h-6c-2.27,11.93-5.56,20.42-9.23,26.29H392.6V436c11,0,20.1-1,27.95-4.18.51,1.87.94,3.73,1.27,5.52Z" transform="translate(-168 -359)"/><polygon class="cls-3" points="192.75 54.52 192.75 50.88 178.76 50.88 178.76 44.2 173.1 44.2 173.1 50.88 159.13 50.88 159.13 54.52 173.1 54.52 173.1 77.99 178.76 77.99 178.76 54.52 192.75 54.52"/><path class="cls-3" d="M326.62,433.73l2.89,1.33c3.3-3.4,6.34-9.55,6.72-17h-5.52c-.18,5.2-.89,10.5-4.09,15.64" transform="translate(-168 -359)"/><path class="cls-3" d="M351.2,418.09a62.6,62.6,0,0,1,4.2,16.79l5.62-1.55a39.39,39.39,0,0,0-6.15-15.24Z" transform="translate(-168 -359)"/><path d="M197.34,373.6a.62.62,0,0,1-.64-.62c0-.23,0-.33.46-1.11a7,7,0,0,0,1-2.83h.21a9.65,9.65,0,0,1,.2,2.07C198.56,371.57,198.56,373.6,197.34,373.6Zm3.59-8.17c0,1,0,2.05,0,4.67s.05,6.46.07,10.9c0,.83,0,2.46,0,3.5a1,1,0,0,1-.94.92c-.44,0-.44-.35-.44-.49s.07-.87.07-1.26c.07-2.95.07-7,.07-11.82v-3c0-2.94,0-3.29,0-3.73a3.37,3.37,0,0,0-.23-1.05l1.65.41c.42.09.58.21.58.39S201.44,365.2,200.93,365.43Zm2.16,5c-.39,0-.48-.16-.92-.94a3,3,0,0,0-1-1.08l.06-.21c1,.05,2.37.69,2.37,1.68A.5.5,0,0,1,203.09,370.47Zm14.67,13.64h-12a18.36,18.36,0,0,0-3,.27l-.55-1c1.28.09,2.55.16,3.84.16h3.08V381.3h-1.41a17.34,17.34,0,0,0-2.94.28l-.55-1c1.26.09,2.55.16,3.82.16h1.08v-1.93h-3.27c0,.16.05.41,0,.5a1.72,1.72,0,0,1-.86.39c-.32,0-.32-.23-.32-.34,0-.3.07-1.68.07-2,0-.75,0-2.8,0-3.17a6.47,6.47,0,0,0-.13-1.45l1.63.81h7.38l.32-.37c.07-.07.21-.19.3-.19a.53.53,0,0,1,.32.12l.76.53c.14.09.23.18.23.32s-.18.32-.78.67c0,1,.05,2.18.07,2.85,0,.18.07,1,.07,1.17,0,.48-.55.65-1,.65-.25,0-.3-.17-.25-.53h-3.49v1.93H213l.55-.67c.11-.14.23-.25.34-.25a1.24,1.24,0,0,1,.44.23l.87.64c.12.09.26.21.26.37s-.21.23-.37.23h-4.87v2.25h5l.81-1c.11-.12.23-.28.36-.28s.33.21.39.25l1.06,1c.19.16.21.25.21.35S217.86,384.11,217.76,384.11Zm0-12.31H206.27a17,17,0,0,0-3,.26l-.55-1c1.27.11,2.55.18,3.82.18h4.69a17.3,17.3,0,0,0,.8-3.59h-4.85a17.2,17.2,0,0,0-3,.26l-.56-1c1.29.09,2.56.18,3.84.18h1.57c-.09-2.09-.09-2.34-.35-3l1.94.48c.27.07.41.14.41.3s-.28.37-.76.6v1.65h3.93l.76-.83c.18-.18.25-.27.37-.27a.81.81,0,0,1,.41.25l.95.81c.2.16.23.23.23.36s-.19.23-.35.23h-4.51l1.52.69c.21.1.3.16.3.33s-.46.34-.94.52c-.32.51-1.18,1.78-1.36,2.05h3.79l.63-.78c.13-.16.23-.3.36-.3s.26.12.42.25l1,.79a.46.46,0,0,1,.23.34C218.13,371.76,218,371.8,217.79,371.8Zm-8.6,2.35h-3.27v1.77h3.27Zm0,2.32h-3.27v1.79h3.27ZM207.53,371c-.55,0-.57-.3-.69-1.31a3.22,3.22,0,0,0-.44-1.64l.17-.13c1,.83,1.67,1.4,1.67,2.32A.68.68,0,0,1,207.53,371Zm6.21,3.15h-3.49v1.77h3.49Zm0,2.32h-3.49v1.79h3.49Z" transform="translate(-168 -359)"/><path d="M246.63,379a11.16,11.16,0,0,1-2.46,2.37,5.11,5.11,0,0,1-2.62.87,2.8,2.8,0,0,1-2.3-1.31,4.74,4.74,0,0,1-.53-2.51c0-.6.19-2.18.37-3.77s.37-3.17.37-3.7-.21-1.43-1.08-1.43c-1.61,0-4.67,3.06-6.76,6a33,33,0,0,0,.2,4.78c.09,1.11.09,1.22.09,1.54a6.15,6.15,0,0,1-.32,2,.42.42,0,0,1-.37.28c-.41,0-.55-.55-.66-1a13.16,13.16,0,0,0-.94-2.32l.11-.07a4.37,4.37,0,0,0,1,.87c.16,0,.19-.18.19-.27,0-.74-.19-3.91-.19-4.58-.44.67-2.83,4.56-3.08,5-.11.19-.28.49-.55.49s-.48-.35-.48-.9a1.53,1.53,0,0,1,.55-1.27,24.46,24.46,0,0,0,3.58-6.3c.05-.73.07-1,.17-1.93l-2.23,1.2c-.65.34-.74.37-.92.37-.79,0-1.34-1.22-1.34-1.94a.7.7,0,0,1,.05-.32,1.8,1.8,0,0,0,1.33.78,17.12,17.12,0,0,0,3.22-1.15c.05-.52.3-3,.3-3.31,0-1.19-.62-1.4-1.84-1.75a3.51,3.51,0,0,1,1.33-.29,2,2,0,0,1,2,1.54,3.69,3.69,0,0,1-.3,1.1,20,20,0,0,0-.46,2.19c.25,0,.83.55.83.82s0,.16-.51.95a9.15,9.15,0,0,0-.69,1.4c0,.39-.07,1-.07,1.26,2.05-2.89,5.18-6,7.06-6a2,2,0,0,1,2,2.29,12.89,12.89,0,0,1-.16,1.73,45.44,45.44,0,0,0-.67,5.84c0,1.63.3,2.23,1.63,2.23a10.27,10.27,0,0,0,5-1.95Z" transform="translate(-168 -359)"/><path d="M261,365.92c0-.51-.42-.69-1.41-1.06a1.13,1.13,0,0,1,.95-.32c1.12,0,2,.73,2,1.24,0,.11,0,.27-.32.73-.18.28-1.08,1.59-1.26,1.84a15.07,15.07,0,0,0,2.66-.92,2.13,2.13,0,0,1,.62-.16c.35,0,1.18.19,1.18.67s-.37.51-.9.64c-1.59.39-2.44.56-4.32.9a39,39,0,0,0-2.72,4.19,4.05,4.05,0,0,1,2.3-.76,2.75,2.75,0,0,1,2.83,2.41c1.11-.62,2.32-1.29,4.95-2.48.29-.14.48-.28.48-.6s-.28-.53-.64-.83a1.34,1.34,0,0,1,.36,0c.49,0,2.28.57,2.28,1.79,0,.48-.25.51-1.15.64a30.77,30.77,0,0,0-6.09,2.33,15,15,0,0,1,.27,2.87c0,.23,0,1.89-.76,1.89s-.66-1-.66-1.25c0-.09.06-1.51.06-1.81a10.18,10.18,0,0,0-.06-1.08c-1.77,1.15-3.45,3-3.45,4.27,0,1.71,2.85,1.75,3.65,1.75a19.45,19.45,0,0,0,3.57-.41,3.75,3.75,0,0,1,.73-.09c.72,0,1.34.36,1.34.8,0,.14-.09.46-.65.58a21.1,21.1,0,0,1-3.35.23c-3.5,0-4.33-.4-5-.88a2.4,2.4,0,0,1-1.1-1.86,4.06,4.06,0,0,1,.8-2.14,14.46,14.46,0,0,1,3.38-3c-.25-1.35-.64-2.36-2.11-2.36a4,4,0,0,0-3,1.81c-.9,1.29-1,1.45-1.31,1.45-.56,0-.58-.66-.58-.83a.94.94,0,0,1,.53-.92c1.15-.82,2.8-3.51,3.95-5.42a13,13,0,0,1-2.41.32,1.89,1.89,0,0,1-2.14-1.82,3.32,3.32,0,0,0,2.19.78,16.88,16.88,0,0,0,3-.32A14.78,14.78,0,0,0,261,365.92Z" transform="translate(-168 -359)"/><path d="M279.53,378.93a9.36,9.36,0,0,1,4.33,1.77,3.47,3.47,0,0,1,1.33,2.6,1.16,1.16,0,0,1-1.06,1.2c-.37,0-.62-.3-1.08-1.22-1.13-2.3-1.63-3.29-3.56-4.12Z" transform="translate(-168 -359)"/><path d="M303.45,380.06c.64.48,1.52,1.08,2,1.38a1.53,1.53,0,0,0,.85.3,1.26,1.26,0,0,0,1-.69c1.36-2.35,1.82-6.58,1.82-7.43,0-1.61-.37-2.32-1.54-2.32a10,10,0,0,0-2,.27c-.41.88-2.06,4.83-2.46,5.61-.92,1.84-1.88,3.84-2.87,5.45-.05.07-.39.65-.74.65s-.52-.3-.52-.85c0-.72.25-1,.87-1.77a42.29,42.29,0,0,0,2.37-4.05c.83-1.61,2-4.26,2.14-4.72a27.23,27.23,0,0,0-3.43,1.36c-.46.32-.57.39-.85.39a2.32,2.32,0,0,1-1.86-2.32.6.6,0,0,1,.09-.34,2.15,2.15,0,0,0,1.65,1.17,6.27,6.27,0,0,0,1.48-.3c1.88-.53,1.95-.53,3.31-.9a16.23,16.23,0,0,0,1.24-3.79,1.18,1.18,0,0,0-.76-1.24l-.92-.44a3.16,3.16,0,0,1,.92-.12c1.63,0,2.42,1,2.42,1.5,0,.21,0,.23-.44,1-.23.42-1.06,2.42-1.24,2.81a9.43,9.43,0,0,1,1.68-.16c2.39,0,2.52,2.32,2.52,3.4,0,1.38-.78,6.87-2.46,8.74-.3.32-1.24,1.31-1.93,1.31-.5,0-.53-.28-.55-.69s-.11-.83-1.91-3.11Zm9.57-4.3c1.56-.05,3.1-.07,3.1-1.18,0-.52-1.08-2.23-4.55-4.59a7.9,7.9,0,0,1,5,3,5.34,5.34,0,0,1,1.29,3.41c0,.5-.1.78-.42.78s-.27-.05-.76-.37c-.27-.18-.46-.11-1.88-.46L313,375.9Z" transform="translate(-168 -359)"/><path d="M331.55,366.72c0-.83-.55-1.08-1.22-1.42a1.32,1.32,0,0,1,.69-.19,1.92,1.92,0,0,1,2.16,1.75,2.25,2.25,0,0,1-.37.71,15.35,15.35,0,0,0-1,2.19,13.71,13.71,0,0,0,2.07-1,3.1,3.1,0,0,1,1.26-.53c.28,0,.76.19.76.6,0,.14,0,.28-.48.53a17.73,17.73,0,0,1-4.05,1.49c-.05.14-.09.26-.23.62-2.19,6.12-4.44,11-4.69,11.46a.64.64,0,0,1-.62.41c-.42,0-.6-.6-.6-1s0-.46.74-1.47c1-1.4,1.33-2.35,4.18-9.38a2.05,2.05,0,0,1,.14-.37,16.74,16.74,0,0,1-3.13.41,2.71,2.71,0,0,1-2.23-1.22,8.57,8.57,0,0,0,2.35.3,12.92,12.92,0,0,0,3.38-.5A18.72,18.72,0,0,0,331.55,366.72Zm6.83,15.45A16.75,16.75,0,0,0,341,382a5.12,5.12,0,0,1,.75-.09,1,1,0,0,1,1.11.89.49.49,0,0,1-.46.46,13.37,13.37,0,0,1-2.58.19c-1.35,0-3.75-.09-5-.81a2.87,2.87,0,0,1-1.66-2.46,3.08,3.08,0,0,1,.44-1.56C333.67,380.68,333.94,382.17,338.38,382.17Zm-.28-7.75c1.45-1.21,1.94-1.61,1.94-1.9,0-.46-1.06-.67-2.07-.67-.72,0-1.29.07-1.73.09a5.62,5.62,0,0,1,3.2-.92c2.32,0,3.47,1.08,3.47,1.84,0,.32-.21.44-.53.44l-.74-.05a10.22,10.22,0,0,0-3.4,1.29Z" transform="translate(-168 -359)"/><path d="M357.77,384c5.72-.14,8.76-3,8.76-5.55,0-1.63-1.17-3-3.4-3a9.41,9.41,0,0,0-6.4,3c-.57.88-.64,1-.92,1a1.47,1.47,0,0,1-1.15-1.17,16.91,16.91,0,0,1,.58-1.91c.11-.44.87-4.76,1.06-5.66a17.35,17.35,0,0,1-2.49.35,2.65,2.65,0,0,1-2.43-1.38,4.12,4.12,0,0,0,2,.46,11.94,11.94,0,0,0,3-.44c.07-.44.43-2.69.43-3.24,0-.94-.3-1.2-1.26-1.59a.93.93,0,0,1,.76-.23c1.24,0,2.2.92,2.2,1.36a1.87,1.87,0,0,1-.25.71,12.71,12.71,0,0,0-.78,2.71,24,24,0,0,0,3.7-1.4,1.84,1.84,0,0,1,.85-.27c.44,0,1.22.25,1.22.62s-.43.46-.5.48a44.58,44.58,0,0,1-5.5,1.63,48,48,0,0,0-1.17,6.65c.34-.16.55-.26,2.5-1.24a10,10,0,0,1,4.47-1.11c2.2,0,4.64,1.38,4.64,4a4.93,4.93,0,0,1-2.53,4.23,11.57,11.57,0,0,1-5.73,1.26,14.3,14.3,0,0,1-1.74-.09Z" transform="translate(-168 -359)"/><path d="M382.19,374.72c-.16.69-.94,3.75-1.1,4.37a11.75,11.75,0,0,0-.48,2.65c0,.25.11,1.58.11,1.61,0,.27,0,.59-.43.59s-.76-.43-1-.78a10.85,10.85,0,0,1-1.27-5.88,16,16,0,0,1,.17-2.19l.73-5a10.9,10.9,0,0,0,.14-1.68,2.87,2.87,0,0,0-.71-2.1c1.05-.16,2.3,1.25,2.3,2.1a9.4,9.4,0,0,1-.37,1.26,28.7,28.7,0,0,0-1.31,7.61c0,1.91.39,3.34.66,3.34s.26-.35.26-.37c.71-2.21,1.08-3.1,2.09-5.61Zm4.42,5.25a10.88,10.88,0,0,0,3.82.64,15.64,15.64,0,0,0,2.43-.21,3.3,3.3,0,0,1,.39,0c.4,0,1.61.3,1.61.87s-.78.65-2.2.65c-1.06,0-4.83-.16-6.26-1a3.1,3.1,0,0,1-1.61-2.69,1.94,1.94,0,0,1,.12-.69C385.34,378.72,385.62,379.51,386.61,380Zm1.52-8.76a18.68,18.68,0,0,0,2.37-2.12c0-.18-.67-.18-.72-.18a16.37,16.37,0,0,0-4.46,1,7.86,7.86,0,0,1,5.13-2c1.4,0,3.29.39,3.29,1.1,0,.4-.32.46-1.18.63a11.58,11.58,0,0,0-4.32,1.77Z" transform="translate(-168 -359)"/><path d="M399.26,381.14a3.35,3.35,0,1,1,3.34,3.33A3.35,3.35,0,0,1,399.26,381.14Zm6.05,0a2.72,2.72,0,1,0-2.71,2.71A2.71,2.71,0,0,0,405.31,381.14Z" transform="translate(-168 -359)"/></svg>