<svg xmlns="http://www.w3.org/2000/svg" width="145.055" height="29.01" viewBox="0 0 145.055 29.01"><defs><style>.a{fill:#dc0021;}.b{fill:#1a1311;}</style></defs><g transform="translate(-9.342 -2.285)"><path class="a" d="M86.173,40.24c1.706-.4,3.7-1.6,3.7-5.062a4.016,4.016,0,0,0-2.685-4.041l-.106-.036-.016.124a29.323,29.323,0,0,1-2.29,9.18c-.721,1.457-1.657,2.165-2.863,2.165a3.356,3.356,0,0,1-2.628-1.606,7.512,7.512,0,0,1-1.227-4.419,9.084,9.084,0,0,1,2.089-5.985,7.142,7.142,0,0,1,2.421-1.825,7.492,7.492,0,0,1,3.157-.67c4.236,0,6.973,2.833,6.973,7.217a10.075,10.075,0,0,1-.6,3.588A6.7,6.7,0,0,1,90.5,41.331a7.128,7.128,0,0,1-4.331,1.9V40.24m-1.932-9.208c-2.43.662-3.537,3.321-3.537,5.513a4.737,4.737,0,0,0,.44,2.119c.226.454.514.76.718.76.3,0,.639-.57,1.118-1.906a33.659,33.659,0,0,0,1.377-6.367l.02-.155Z" transform="translate(-33.55 -12.588)"/><rect class="a" width="2.915" height="9.261" transform="translate(88.589 15.232)"/><path class="a" d="M175.4,35.908c0,3.176-2.9,4.531-5.387,4.725l-.867.068,1.507,2.473.309-.007a7.94,7.94,0,0,0,2.863-.62,7.61,7.61,0,0,0,2.375-1.554,6.8,6.8,0,0,0,2.169-4.828V27.6H175.4v8.305" transform="translate(-78.029 -12.362)"/><rect class="a" width="9.92" height="2.777" transform="translate(130.301 21.304)"/><path class="a" d="M227.952,34.858h-2.738v1.83h-6.249v2.739h4.394a6.967,6.967,0,0,1-.653,1.66,9.019,9.019,0,0,1-3.813,3.352l-.6.326,1.918,2.1.37-.211a11.36,11.36,0,0,0,4.521-4.218c.04-.07.078-.141.116-.212v4.5h2.738v-7.3h1.919V36.688h-1.919v-1.83" transform="translate(-102.024 -15.905)"/><path class="a" d="M203.617,28.349H191.773v2.963h8.981V34.64a5.771,5.771,0,0,1-1.766,4.293,7.253,7.253,0,0,1-5.042,1.686l-.26,0-.3.018-.708-.02,1.409,2.437.168.336.394-.032c3.306-.177,5.77-1.338,7.318-3.451a9.023,9.023,0,0,0,1.646-5.264V28.349" transform="translate(-89.077 -12.726)"/><path class="a" d="M56.476,31.69h2.375v-2.7H56.476V26.668H53.429v2.321H49.565v-2.28H46.682v2.28H43.805v2.7h2.877v2.76a7.242,7.242,0,0,1-.116,1.313H43.627v2.742h2.007a8.917,8.917,0,0,1-1.911,2.186l-.487.376,2.16,2.106.373-.331a12,12,0,0,0,3.1-4.337h4.555V42.8h3.047V38.505h2.659V35.763H56.476V31.69m-6.908,2.481c0-.047,0-.091,0-.111V31.69h3.864v4.073H49.514A10.47,10.47,0,0,0,49.568,34.171Z" transform="translate(-16.55 -11.906)"/><rect class="a" width="13.681" height="2.906" transform="translate(9.843 15.445)"/><rect class="a" width="12.573" height="2.904" transform="translate(10.446 21.248)"/><rect class="a" width="14.849" height="2.94" transform="translate(9.342 27.449)"/><path class="a" d="M276.657,34.951l-2.688.994,1.135,3.242-5.662.7,3.28-12.286h-2.966L266.374,40.27l-1.366.169.352,2.845,10.715-1.33.47,1.343,2.689-1-2.576-7.351" transform="translate(-124.835 -12.362)"/><rect class="b" width="17.703" height="3.059" transform="translate(64.684 28.237)"/><rect class="b" width="3.809" height="3.812" transform="translate(67.981 13.802)"/><rect class="b" width="3.809" height="3.809" transform="translate(67.981 20.948)"/><rect class="b" width="3.813" height="3.812" transform="translate(75.277 13.802)"/><rect class="b" width="3.813" height="3.809" transform="translate(75.277 20.948)"/><path class="b" d="M126.347,2.285,117.49,8.278v3.993l8.856-6.009,8.847,5.983V8.273l-8.847-5.988" transform="translate(-52.806 0)"/><path class="a" d="M111.514,16.067V37.014h3.058V14l-3.058,2.07" transform="translate(-49.888 -5.719)"/><path class="a" d="M155.138,16.053l-3.053-2.067V37.009h3.057V16.057l0,0" transform="translate(-69.698 -5.713)"/></g></svg>